<?xml version="1.0" encoding="utf-8"?>
<!-- Generator: Adobe Illustrator 22.0.0, SVG Export Plug-In . SVG Version: 6.00 Build 0)  -->
<svg version="1.1" xmlns="http://www.w3.org/2000/svg" xmlns:xlink="http://www.w3.org/1999/xlink" x="0px" y="0px"
	 viewBox="0 0 800 409.3" style="enable-background:new 0 0 800 409.3;" xml:space="preserve">
<style type="text/css">
	.st0{display:none;}
	.st1{display:inline;fill:url(#SVGID_1_);}
	.st2{display:inline;}
	.st3{fill:#4C4C4C;}
	.st4{fill:#FFFFFD;}
	.st5{fill:#FDFBEE;}
	.st6{fill:#ECE5D2;}
	.st7{fill:#F6F4EF;}
	.st8{fill:#AEAAA2;}
	.st9{fill:#D9D7D1;}
	.st10{fill:#AC793E;}
	.st11{fill:#613424;}
	.st12{fill:#3B2418;}
	.st13{fill:#965644;}
	.st14{fill:#80B5AC;}
	.st15{fill:#844226;}
	.st16{fill:#63968C;}
	.st17{fill:#446B5D;}
	.st18{fill:#3C5640;}
	.st19{fill:#533122;}
	.st20{fill:#2A3F36;}
	.st21{fill:#496E69;}
	.st22{fill:#22221A;}
	.st23{fill:#93BAAF;}
	.st24{fill:#8ABDBE;}
	.st25{fill:#7CB3A2;}
	.st26{fill:#82B9B7;}
	.st27{fill:#A3CBD1;}
	.st28{fill:#7EB6B3;}
	.st29{fill:url(#SVGID_2_);}
	.st30{fill:none;}
	.st31{fill:url(#SVGID_3_);}
	.st32{fill:url(#SVGID_4_);}
	.st33{fill:url(#SVGID_5_);}
	.st34{fill:url(#SVGID_6_);}
	.st35{fill:url(#SVGID_7_);}
	.st36{fill:url(#SVGID_8_);}
	.st37{fill:url(#SVGID_9_);}
	.st38{fill:url(#SVGID_10_);}
	.st39{fill:url(#SVGID_11_);}
	.st40{fill:#F9FAFA;}
	.st41{fill:url(#SVGID_12_);}
	.st42{fill:url(#SVGID_13_);}
	.st43{fill:url(#SVGID_14_);}
	.st44{fill:url(#SVGID_15_);}
	.st45{fill:url(#SVGID_16_);}
	.st46{fill:url(#SVGID_17_);}
	.st47{fill:url(#SVGID_18_);}
	.st48{fill:url(#SVGID_19_);}
	.st49{fill:url(#SVGID_20_);}
	.st50{fill:url(#SVGID_21_);}
	.st51{fill:url(#SVGID_22_);}
	.st52{fill:url(#SVGID_23_);}
	.st53{fill:url(#SVGID_24_);}
	.st54{fill:url(#SVGID_25_);}
	.st55{fill:url(#SVGID_26_);}
	.st56{opacity:0.78;}
	.st57{fill:url(#SVGID_27_);}
	.st58{fill:url(#SVGID_28_);}
	.st59{fill:url(#SVGID_29_);}
	.st60{fill:url(#SVGID_30_);}
	.st61{fill:url(#SVGID_31_);}
	.st62{fill:url(#SVGID_32_);}
	.st63{fill:url(#SVGID_33_);}
	.st64{fill:url(#SVGID_34_);}
	.st65{opacity:0.46;fill:#533122;}
	.st66{fill:#9A9182;}
	.st67{fill:#B2AFAB;}
	.st68{fill:#817F79;}
	.st69{fill:#55544D;}
	.st70{opacity:0.33;}
	.st71{opacity:0.19;}
	.st72{opacity:0.52;}
	.st73{fill:#C3B9A7;}
	.st74{fill:#E8E5DF;}
	.st75{fill:#F5F2ED;}
	.st76{fill:#C2C3C8;}
	.st77{opacity:0.18;}
	.st78{opacity:0.35;fill:#C2C3C8;}
	.st79{opacity:0.42;}
	.st80{fill:#434142;}
	.st81{fill:#E3E0D4;}
	.st82{fill:#CA8C50;}
	.st83{fill:#2D2C24;}
</style>
<g id="BACKGROUND" class="st0">
	<linearGradient id="SVGID_1_" gradientUnits="userSpaceOnUse" x1="400" y1="-209.7698" x2="400" y2="798.3304">
		<stop  offset="0" style="stop-color:#778B95"/>
		<stop  offset="0.2618" style="stop-color:#98A4A7"/>
		<stop  offset="0.5677" style="stop-color:#B8BCB9"/>
		<stop  offset="0.8248" style="stop-color:#CCCBC4"/>
		<stop  offset="1" style="stop-color:#D3D0C8"/>
	</linearGradient>
	<rect x="-3.6" y="-3.6" class="st1" width="807.2" height="807.2"/>
	<g class="st2">
		<g>
			<g>
				<g>
					<path class="st3" d="M416.7,756.5h0.8v-1c0-1,0.1-1.8,0.4-2.4c0.3-0.6,0.7-1,1.3-1.3c0.6-0.3,1.4-0.4,2.5-0.4
						c1.9,0,2.8,0.5,2.8,1.4c0,0.3-0.1,0.5-0.3,0.8c-0.2,0.2-0.4,0.3-0.7,0.3c-0.1,0-0.3,0-0.6-0.1c-0.3,0-0.6-0.1-0.8-0.1
						c-0.6,0-0.9,0.2-1.1,0.5c-0.2,0.3-0.2,0.8-0.2,1.5v0.8h0.8c1.2,0,1.8,0.4,1.8,1.1c0,0.5-0.2,0.8-0.5,1
						c-0.3,0.1-0.8,0.2-1.3,0.2h-0.8v8.4c0,0.6-0.1,1.1-0.5,1.4c-0.3,0.3-0.7,0.5-1.2,0.5c-0.5,0-0.8-0.2-1.1-0.5
						c-0.3-0.3-0.4-0.8-0.4-1.4v-8.4h-0.9c-0.5,0-0.8-0.1-1.1-0.3c-0.3-0.2-0.4-0.5-0.4-0.8C415.1,756.9,415.7,756.5,416.7,756.5"/>
					<path class="st3" d="M427.2,764.6v2.7c0,0.6-0.2,1.1-0.5,1.4c-0.3,0.3-0.7,0.5-1.2,0.5c-0.5,0-0.8-0.2-1.1-0.5
						c-0.3-0.3-0.4-0.8-0.4-1.4v-8.9c0-1.4,0.5-2.1,1.5-2.1c0.5,0,0.9,0.2,1.1,0.5c0.2,0.3,0.4,0.8,0.4,1.5c0.4-0.7,0.8-1.1,1.2-1.5
						c0.4-0.3,0.9-0.5,1.6-0.5c0.7,0,1.3,0.2,1.9,0.5c0.6,0.3,0.9,0.8,0.9,1.3c0,0.4-0.1,0.7-0.4,1c-0.3,0.3-0.6,0.4-0.9,0.4
						c-0.1,0-0.4-0.1-0.8-0.2c-0.4-0.1-0.8-0.2-1.2-0.2c-0.5,0-0.8,0.1-1.1,0.4c-0.3,0.3-0.5,0.6-0.7,1.1c-0.2,0.5-0.3,1.1-0.3,1.7
						C427.2,762.8,427.2,763.6,427.2,764.6"/>
					<path class="st3" d="M441.8,763.5h-6.2c0,0.7,0.2,1.4,0.4,1.9c0.3,0.5,0.7,1,1.1,1.2c0.5,0.3,1,0.4,1.6,0.4c0.4,0,0.7,0,1-0.1
						c0.3-0.1,0.6-0.2,0.9-0.4c0.3-0.2,0.6-0.4,0.8-0.6c0.2-0.2,0.6-0.5,1-0.9c0.2-0.1,0.4-0.2,0.7-0.2c0.3,0,0.6,0.1,0.8,0.3
						c0.2,0.2,0.3,0.4,0.3,0.8c0,0.3-0.1,0.6-0.3,1c-0.2,0.4-0.6,0.8-1,1.1c-0.5,0.3-1,0.6-1.7,0.9c-0.7,0.2-1.5,0.4-2.4,0.4
						c-2.1,0-3.6-0.6-4.8-1.7c-1.1-1.2-1.7-2.8-1.7-4.8c0-0.9,0.1-1.8,0.4-2.6c0.3-0.8,0.7-1.5,1.2-2.1c0.5-0.6,1.2-1,2-1.3
						c0.8-0.3,1.7-0.5,2.6-0.5c1.2,0,2.3,0.3,3.2,0.8c0.9,0.5,1.6,1.2,2,2c0.4,0.8,0.7,1.7,0.7,2.5c0,0.8-0.2,1.3-0.7,1.6
						C443.3,763.3,442.6,763.5,441.8,763.5 M435.6,761.7h5.8c-0.1-1.1-0.4-1.9-0.9-2.4c-0.5-0.5-1.2-0.8-2-0.8c-0.8,0-1.4,0.3-2,0.8
						C436,759.8,435.7,760.6,435.6,761.7"/>
					<path class="st3" d="M455,763.5h-6.2c0,0.7,0.2,1.4,0.4,1.9c0.3,0.5,0.7,1,1.1,1.2c0.5,0.3,1,0.4,1.6,0.4c0.4,0,0.7,0,1-0.1
						c0.3-0.1,0.6-0.2,0.9-0.4c0.3-0.2,0.6-0.4,0.8-0.6c0.2-0.2,0.6-0.5,1-0.9c0.2-0.1,0.4-0.2,0.7-0.2c0.3,0,0.6,0.1,0.8,0.3
						c0.2,0.2,0.3,0.4,0.3,0.8c0,0.3-0.1,0.6-0.3,1c-0.2,0.4-0.6,0.8-1,1.1c-0.5,0.3-1,0.6-1.7,0.9c-0.7,0.2-1.5,0.4-2.4,0.4
						c-2,0-3.6-0.6-4.8-1.7c-1.1-1.2-1.7-2.8-1.7-4.8c0-0.9,0.1-1.8,0.4-2.6c0.3-0.8,0.7-1.5,1.2-2.1c0.5-0.6,1.2-1,2-1.3
						c0.8-0.3,1.7-0.5,2.6-0.5c1.2,0,2.3,0.3,3.2,0.8c0.9,0.5,1.6,1.2,2,2c0.4,0.8,0.7,1.7,0.7,2.5c0,0.8-0.2,1.3-0.7,1.6
						C456.5,763.3,455.9,763.5,455,763.5 M448.8,761.7h5.8c-0.1-1.1-0.4-1.9-0.9-2.4c-0.5-0.5-1.2-0.8-2-0.8c-0.8,0-1.4,0.3-2,0.8
						C449.2,759.8,448.9,760.6,448.8,761.7"/>
					<path class="st3" d="M462,758v0.4c0.6-0.7,1.2-1.3,1.9-1.6c0.6-0.3,1.4-0.5,2.2-0.5c1,0,1.9,0.3,2.7,0.8
						c0.8,0.5,1.5,1.2,1.9,2.2c0.5,1,0.7,2.1,0.7,3.5c0,1-0.1,1.9-0.4,2.7c-0.3,0.8-0.7,1.5-1.1,2.1c-0.5,0.6-1.1,1-1.7,1.3
						c-0.7,0.3-1.4,0.4-2.1,0.4c-0.9,0-1.7-0.2-2.3-0.6c-0.6-0.4-1.2-0.9-1.8-1.6v4.8c0,1.4-0.5,2.1-1.5,2.1c-0.6,0-1-0.2-1.2-0.5
						c-0.2-0.4-0.3-0.9-0.3-1.6V758c0-0.6,0.1-1.1,0.4-1.4c0.3-0.3,0.6-0.4,1.1-0.4c0.5,0,0.8,0.2,1.1,0.5
						C461.9,757,462,757.4,462,758 M468.3,762.6c0-0.8-0.1-1.6-0.4-2.2c-0.3-0.6-0.6-1.1-1.1-1.4c-0.5-0.3-1-0.5-1.5-0.5
						c-0.9,0-1.6,0.3-2.2,1c-0.6,0.7-0.9,1.7-0.9,3.1c0,1.3,0.3,2.3,0.9,3c0.6,0.7,1.3,1.1,2.2,1.1c0.5,0,1-0.2,1.5-0.5
						c0.5-0.3,0.8-0.8,1.1-1.4C468.1,764.2,468.3,763.5,468.3,762.6"/>
					<path class="st3" d="M474.7,754.7c-0.4,0-0.8-0.1-1.1-0.4c-0.3-0.3-0.5-0.7-0.5-1.2c0-0.5,0.2-0.8,0.5-1.1
						c0.3-0.3,0.7-0.4,1.1-0.4c0.4,0,0.8,0.1,1.1,0.4c0.3,0.3,0.5,0.7,0.5,1.2c0,0.5-0.2,0.9-0.5,1.1
						C475.5,754.6,475.1,754.7,474.7,754.7 M476.2,758v9.2c0,0.6-0.2,1.1-0.5,1.4c-0.3,0.3-0.7,0.5-1.2,0.5c-0.5,0-0.8-0.2-1.1-0.5
						c-0.3-0.3-0.4-0.8-0.4-1.4v-9.1c0-0.6,0.2-1.1,0.4-1.4c0.3-0.3,0.7-0.5,1.1-0.5c0.5,0,0.8,0.2,1.2,0.5
						C476.1,757,476.2,757.4,476.2,758"/>
					<path class="st3" d="M486.5,767.7l-2.8-4.6l-1.7,1.6v2.5c0,0.6-0.2,1.1-0.5,1.4c-0.3,0.3-0.7,0.5-1.1,0.5
						c-0.5,0-0.9-0.2-1.2-0.5c-0.3-0.3-0.4-0.8-0.4-1.4v-13.6c0-0.7,0.1-1.2,0.4-1.6c0.3-0.4,0.7-0.6,1.2-0.6c0.5,0,0.9,0.2,1.2,0.5
						c0.3,0.3,0.4,0.8,0.4,1.5v7.7l3.6-3.8c0.4-0.5,0.8-0.8,1-1c0.2-0.2,0.5-0.3,0.8-0.3c0.4,0,0.7,0.1,1,0.4
						c0.3,0.3,0.4,0.6,0.4,0.9c0,0.5-0.4,1.1-1.3,1.9l-1.7,1.5l3.3,5.1c0.2,0.4,0.4,0.7,0.5,0.9c0.1,0.2,0.2,0.4,0.2,0.6
						c0,0.5-0.1,0.9-0.4,1.2c-0.3,0.3-0.6,0.4-1.1,0.4c-0.4,0-0.7-0.1-0.9-0.3C487.1,768.6,486.9,768.2,486.5,767.7"/>
					<path class="st3" d="M493.4,769.2c-0.5,0-0.9-0.2-1.2-0.5c-0.3-0.3-0.5-0.7-0.5-1.3c0-0.5,0.2-0.9,0.5-1.2
						c0.3-0.3,0.7-0.5,1.2-0.5c0.5,0,0.9,0.2,1.3,0.5c0.3,0.3,0.5,0.8,0.5,1.2c0,0.6-0.2,1-0.5,1.3
						C494.3,769,493.9,769.2,493.4,769.2"/>
					<path class="st3" d="M509.3,765.2c0,0.4-0.1,0.8-0.4,1.3c-0.2,0.5-0.6,0.9-1.1,1.3c-0.5,0.4-1.1,0.7-1.8,1
						c-0.7,0.2-1.6,0.4-2.5,0.4c-2,0-3.5-0.6-4.6-1.7c-1.1-1.1-1.7-2.7-1.7-4.6c0-1.3,0.3-2.5,0.8-3.5c0.5-1,1.2-1.8,2.2-2.3
						c1-0.6,2.1-0.8,3.4-0.8c0.8,0,1.6,0.1,2.3,0.4c0.7,0.2,1.3,0.6,1.7,0.9c0.5,0.4,0.8,0.8,1.1,1.2c0.3,0.4,0.4,0.8,0.4,1.2
						c0,0.4-0.1,0.7-0.4,1c-0.3,0.3-0.6,0.4-1,0.4c-0.3,0-0.5-0.1-0.7-0.2c-0.2-0.1-0.4-0.4-0.6-0.7c-0.4-0.6-0.8-1-1.2-1.3
						c-0.4-0.3-1-0.4-1.6-0.4c-0.9,0-1.7,0.4-2.3,1.1c-0.6,0.7-0.9,1.7-0.9,3c0,0.6,0.1,1.2,0.2,1.7c0.1,0.5,0.4,0.9,0.6,1.3
						c0.3,0.4,0.6,0.6,1,0.8c0.4,0.2,0.8,0.3,1.3,0.3c0.6,0,1.2-0.1,1.6-0.4c0.5-0.3,0.9-0.7,1.2-1.4c0.2-0.4,0.4-0.6,0.6-0.8
						c0.2-0.2,0.5-0.3,0.8-0.3c0.4,0,0.7,0.2,1,0.4C509.1,764.6,509.3,764.9,509.3,765.2"/>
					<path class="st3" d="M523,762.7c0,0.9-0.2,1.8-0.4,2.6c-0.3,0.8-0.7,1.5-1.3,2.1c-0.6,0.6-1.2,1-2,1.3
						c-0.8,0.3-1.7,0.5-2.6,0.5c-1,0-1.8-0.2-2.6-0.5c-0.8-0.3-1.4-0.8-2-1.3c-0.6-0.6-1-1.3-1.3-2.1c-0.3-0.8-0.4-1.7-0.4-2.6
						c0-1,0.2-1.8,0.4-2.6c0.3-0.8,0.7-1.5,1.3-2.1c0.6-0.6,1.2-1,2-1.3c0.8-0.3,1.7-0.5,2.6-0.5c1,0,1.8,0.2,2.6,0.5
						c0.8,0.3,1.5,0.8,2,1.3c0.6,0.6,1,1.3,1.3,2.1C522.8,760.8,523,761.7,523,762.7 M519.8,762.7c0-1.3-0.3-2.3-0.9-3
						c-0.6-0.7-1.3-1.1-2.3-1.1c-0.6,0-1.2,0.2-1.6,0.5c-0.5,0.3-0.8,0.8-1.1,1.4c-0.3,0.6-0.4,1.4-0.4,2.2c0,0.8,0.1,1.6,0.4,2.2
						c0.3,0.6,0.6,1.1,1.1,1.4c0.5,0.3,1,0.5,1.7,0.5c1,0,1.7-0.4,2.3-1.1C519.5,765,519.8,764,519.8,762.7"/>
					<path class="st3" d="M535.1,762.9v4.2c0,0.7-0.1,1.2-0.5,1.5c-0.3,0.3-0.7,0.5-1.2,0.5c-0.5,0-0.9-0.2-1.2-0.5
						c-0.3-0.3-0.5-0.8-0.5-1.5v-5.1c0-0.8,0-1.4-0.1-1.9c-0.1-0.4-0.2-0.8-0.4-1.1c-0.2-0.3-0.6-0.4-1.1-0.4c-1,0-1.7,0.4-2.1,1.1
						c-0.3,0.7-0.5,1.7-0.5,3.1v4.3c0,0.7-0.1,1.2-0.4,1.5c-0.3,0.3-0.7,0.5-1.2,0.5c-0.5,0-0.9-0.2-1.2-0.5
						c-0.3-0.3-0.5-0.8-0.5-1.5V758c0-0.6,0.1-1.1,0.4-1.4c0.3-0.3,0.6-0.5,1.1-0.5c0.4,0,0.8,0.2,1.1,0.4c0.3,0.3,0.4,0.7,0.4,1.2
						v0.3c0.6-0.7,1.1-1.1,1.8-1.4c0.6-0.3,1.3-0.5,2.1-0.5c0.8,0,1.5,0.2,2.1,0.5c0.6,0.3,1,0.8,1.4,1.4c0.5-0.6,1.1-1.1,1.7-1.4
						c0.6-0.3,1.3-0.5,2-0.5c0.9,0,1.6,0.2,2.3,0.5c0.6,0.3,1.1,0.8,1.4,1.5c0.3,0.6,0.4,1.5,0.4,2.7v6.2c0,0.7-0.2,1.2-0.5,1.5
						c-0.3,0.3-0.7,0.5-1.2,0.5c-0.5,0-0.9-0.2-1.2-0.5c-0.3-0.3-0.5-0.8-0.5-1.5v-5.4c0-0.7,0-1.2-0.1-1.6c-0.1-0.4-0.2-0.8-0.5-1
						c-0.3-0.3-0.7-0.4-1.2-0.4c-0.4,0-0.8,0.1-1.2,0.4c-0.4,0.2-0.7,0.6-0.9,1C535.3,760.6,535.1,761.6,535.1,762.9"/>
				</g>
				<g>
					<path class="st3" d="M386.9,761.9C386.9,761.9,386.9,761.9,386.9,761.9C386.9,761.9,386.9,761.9,386.9,761.9z"/>
					<path class="st3" d="M387.1,762.9C387.1,762.9,387.1,762.9,387.1,762.9c-0.1-0.3-0.1-0.6-0.1-0.9
						C387,762.4,387,762.6,387.1,762.9z"/>
					<path class="st3" d="M388.2,765.9C388.1,765.9,388.1,765.9,388.2,765.9C388.1,765.9,388.1,765.9,388.2,765.9z"/>
					<path class="st3" d="M388.1,765.7c0-0.1-0.1-0.1-0.1-0.2C388,765.6,388,765.6,388.1,765.7z"/>
					<path class="st3" d="M387.4,764.1c0.2,0.5,0.3,1,0.6,1.4C387.7,765,387.6,764.5,387.4,764.1
						C387.4,764.1,387.4,764.1,387.4,764.1z"/>
					<path class="st3" d="M399.3,749.7c0.6,0,1.1,0,1.6,0.1l0.1-0.9c0,0-1.4-0.4-3.3-0.3l-0.1-0.5c0.6-0.1,1-0.6,1-1.3
						c0-0.7-0.6-1.3-1.3-1.3c-0.7,0-1.3,0.6-1.3,1.3c0,0.6,0.4,1.1,1,1.3l0.2,0.6c-2,0.3-3.6,1.1-3.6,1.1l0.3,0.9
						c1.2-0.4,2.3-0.7,3.2-0.8C398,749.8,398.7,749.7,399.3,749.7z"/>
					<path class="st3" d="M388.1,754.4L388.1,754.4c0.1-0.1,0.1-0.1,0.1-0.2l-0.4-0.3l-0.6-0.4c0,0-1,0.9-1.7,2.5
						c0-0.1-0.1-0.1-0.1-0.1c-0.2-0.2-0.5-0.4-0.9-0.4c0,0,0,0,0,0c-0.2,0-0.4-0.1-0.5-0.2c0.1-0.1,0.2-0.3,0.2-0.5
						c0-0.5-0.4-0.8-0.8-0.8c-0.5,0-0.8,0.4-0.8,0.8c0,0.5,0.4,0.8,0.8,0.8c0.1,0,0.1,0,0.2,0c0.2,0.2,0.5,0.4,1,0.4
						c0.2,0,0.4,0.1,0.5,0.2c0.1,0.1,0.2,0.4,0.2,0.5c0,0,0,0,0,0c-0.5,1.5-0.4,3.3-0.4,3.3l1.3,0.1c0-0.7,0.1-1.8,0.5-2.7
						C387.3,755.6,388.1,754.5,388.1,754.4z"/>
					<path class="st3" d="M410.6,750.8c-0.5,0-0.8,0.4-0.8,0.8c0,0.1,0,0.1,0,0.2c-0.2,0.2-0.4,0.5-0.4,1c0,0.2-0.1,0.4-0.2,0.5
						c-0.1,0.1-0.2,0.1-0.4,0.2c-1-1.4-2.2-2.2-2.2-2.2l-0.9,1c0.7,0.6,1.4,1.4,2.1,2.4c0.5,0.7,1,1.6,1.4,2.5l1.3-0.6
						c0,0-0.6-1.4-1.4-2.7c0.1,0,0.3-0.1,0.4-0.2c0.2-0.2,0.4-0.5,0.4-0.9c0-0.3,0.1-0.4,0.2-0.5c0.1,0.1,0.3,0.2,0.5,0.2
						c0.5,0,0.8-0.4,0.8-0.8C411.4,751.2,411,750.8,410.6,750.8z"/>
					<path class="st3" d="M407.3,762.1c-1.7,0.8-4.6,2-8.3,2.5c-1.5,0.2-2.9,0.3-4.2,0.3c-1.7,0-3.2-0.1-4.4-0.3
						c-1.3-0.2-2.4-0.4-3-0.5c0.2,0.5,0.3,1,0.6,1.4c0,0,0,0,0,0c0,0.1,0.1,0.1,0.1,0.2c0,0.1,0.1,0.1,0.1,0.2c0,0,0,0,0,0
						c0.4,0.7,0.8,1.3,1.3,1.9c1.8,1.9,3.6,2.2,3.6,2.2l0,0l0,0c0,0,1.6,0.5,4,0.5c2.4,0,4.7-0.5,7-1.4c1.7-0.8,3.2-2.1,4-3.3
						c0.6-0.9,1-1.8,1.3-2.8c0.1-0.5,0.2-1.4,0.2-2.2C409.1,761.1,408.3,761.6,407.3,762.1z"/>
					<path class="st3" d="M388.7,754.9c0,0.1-0.8,1.1-1.4,2.8c-0.4,1.2-0.4,3-0.4,3v0c0,0.4,0,0.8,0.1,1.2c0,0,0,0,0,0
						c0,0.1,0,0.1,0,0.2c0,0.3,0.1,0.6,0.1,0.9c0.9,0.2,6,1.4,11.7,0.6c3.6-0.5,6.3-1.6,8-2.4c1.4-0.7,2.3-1.3,2.6-1.5
						c-0.3-1.3-1.3-3.2-2.1-4.5c-2.5-3.5-5.1-4.4-6.5-4.6c-0.5-0.1-0.9-0.1-1.5-0.1c-0.5,0-1.2,0-2.1,0.1c-0.9,0.1-1.9,0.3-3.1,0.7
						c-1.7,0.6-3.2,1.4-4.3,2.5l0,0C389.5,754,389.1,754.3,388.7,754.9z M403.8,754c1.2,0,2.1,1,2.1,2.1c0,1.2-1,2.1-2.1,2.1
						c-1.2,0-2.1-1-2.1-2.1C401.6,755,402.6,754,403.8,754z M393.6,754c1.9,0,3.5,1.5,3.5,3.5c0,1.9-1.5,3.5-3.5,3.5
						c-1.9,0-3.5-1.5-3.5-3.5C390.2,755.5,391.7,754,393.6,754z"/>
				</g>
			</g>
		</g>
		<g>
			<path class="st3" d="M268.4,765c0,0.9-0.2,1.6-0.6,2.3c-0.4,0.6-1.1,1.1-1.9,1.4c-0.8,0.3-1.9,0.5-3.1,0.5c-1.2,0-2.1-0.2-3-0.5
				c-0.8-0.4-1.4-0.8-1.8-1.3s-0.6-1.1-0.6-1.6c0-0.4,0.1-0.7,0.4-0.9c0.3-0.3,0.6-0.4,1-0.4c0.3,0,0.6,0.1,0.8,0.2
				c0.2,0.2,0.4,0.4,0.5,0.7c0.3,0.6,0.7,1,1.2,1.3c0.5,0.3,1.1,0.4,1.9,0.4c0.6,0,1.2-0.1,1.6-0.4c0.4-0.3,0.6-0.6,0.6-1
				c0-0.6-0.2-1-0.6-1.2c-0.4-0.3-1.1-0.5-2.1-0.7c-1.1-0.3-2-0.6-2.7-0.9c-0.7-0.3-1.2-0.7-1.7-1.2c-0.4-0.5-0.6-1.1-0.6-1.8
				c0-0.6,0.2-1.2,0.6-1.8c0.4-0.6,0.9-1,1.7-1.4c0.7-0.3,1.7-0.5,2.7-0.5c0.8,0,1.6,0.1,2.2,0.3c0.7,0.2,1.2,0.4,1.7,0.7
				c0.4,0.3,0.8,0.6,1,1c0.2,0.4,0.3,0.7,0.3,1c0,0.4-0.1,0.7-0.4,0.9c-0.2,0.2-0.6,0.4-1.1,0.4c-0.3,0-0.6-0.1-0.8-0.3
				c-0.2-0.2-0.5-0.5-0.8-0.8c-0.2-0.3-0.5-0.6-0.9-0.8c-0.3-0.2-0.8-0.3-1.3-0.3c-0.6,0-1.1,0.1-1.4,0.4c-0.4,0.2-0.6,0.6-0.6,0.9
				c0,0.3,0.1,0.6,0.4,0.8c0.3,0.2,0.7,0.4,1.1,0.5c0.5,0.1,1.1,0.3,2,0.5c1,0.2,1.8,0.5,2.4,0.9c0.6,0.3,1.1,0.7,1.4,1.2
				C268.2,763.9,268.4,764.4,268.4,765z"/>
			<path class="st3" d="M278.9,763.5h-6.3c0,0.7,0.2,1.4,0.4,1.9c0.3,0.6,0.7,1,1.1,1.3c0.5,0.3,1,0.4,1.6,0.4c0.4,0,0.7,0,1.1-0.1
				c0.3-0.1,0.6-0.2,0.9-0.4c0.3-0.2,0.6-0.4,0.8-0.6c0.3-0.2,0.6-0.5,1-0.9c0.2-0.1,0.4-0.2,0.7-0.2c0.3,0,0.6,0.1,0.8,0.3
				c0.2,0.2,0.3,0.4,0.3,0.8c0,0.3-0.1,0.6-0.3,1c-0.2,0.4-0.6,0.8-1,1.1c-0.5,0.4-1,0.7-1.7,0.9c-0.7,0.2-1.5,0.4-2.4,0.4
				c-2.1,0-3.7-0.6-4.8-1.8c-1.1-1.2-1.7-2.8-1.7-4.8c0-0.9,0.1-1.8,0.4-2.6c0.3-0.8,0.7-1.5,1.2-2.1c0.5-0.6,1.2-1,2-1.3
				c0.8-0.3,1.7-0.5,2.6-0.5c1.3,0,2.3,0.3,3.2,0.8c0.9,0.5,1.6,1.2,2,2.1c0.4,0.8,0.7,1.7,0.7,2.6c0,0.8-0.2,1.3-0.7,1.6
				C280.4,763.3,279.8,763.5,278.9,763.5z M272.7,761.6h5.8c-0.1-1.1-0.4-1.9-0.9-2.5c-0.5-0.5-1.2-0.8-2-0.8c-0.8,0-1.5,0.3-2,0.8
				C273.1,759.7,272.8,760.6,272.7,761.6z"/>
			<path class="st3" d="M283.2,767.2v-13.9c0-0.6,0.1-1.1,0.4-1.5c0.3-0.3,0.7-0.5,1.2-0.5c0.5,0,0.9,0.2,1.2,0.5
				c0.3,0.3,0.4,0.8,0.4,1.5v13.9c0,0.7-0.2,1.1-0.5,1.5c-0.3,0.3-0.7,0.5-1.2,0.5c-0.5,0-0.9-0.2-1.1-0.5
				C283.3,768.3,283.2,767.9,283.2,767.2z"/>
			<path class="st3" d="M297.5,763.5h-6.3c0,0.7,0.2,1.4,0.4,1.9c0.3,0.6,0.7,1,1.1,1.3c0.5,0.3,1,0.4,1.6,0.4c0.4,0,0.7,0,1.1-0.1
				c0.3-0.1,0.6-0.2,0.9-0.4c0.3-0.2,0.6-0.4,0.8-0.6c0.3-0.2,0.6-0.5,1-0.9c0.2-0.1,0.4-0.2,0.7-0.2c0.3,0,0.6,0.1,0.8,0.3
				c0.2,0.2,0.3,0.4,0.3,0.8c0,0.3-0.1,0.6-0.3,1c-0.2,0.4-0.6,0.8-1,1.1c-0.5,0.4-1,0.7-1.7,0.9c-0.7,0.2-1.5,0.4-2.4,0.4
				c-2.1,0-3.7-0.6-4.8-1.8c-1.1-1.2-1.7-2.8-1.7-4.8c0-0.9,0.1-1.8,0.4-2.6c0.3-0.8,0.7-1.5,1.2-2.1c0.5-0.6,1.2-1,2-1.3
				c0.8-0.3,1.7-0.5,2.6-0.5c1.3,0,2.3,0.3,3.2,0.8c0.9,0.5,1.6,1.2,2,2.1c0.4,0.8,0.7,1.7,0.7,2.6c0,0.8-0.2,1.3-0.7,1.6
				C299,763.3,298.3,763.5,297.5,763.5z M291.2,761.6h5.8c-0.1-1.1-0.4-1.9-0.9-2.5c-0.5-0.5-1.2-0.8-2-0.8c-0.8,0-1.5,0.3-2,0.8
				C291.6,759.7,291.3,760.6,291.2,761.6z"/>
			<path class="st3" d="M313.2,765.2c0,0.4-0.1,0.8-0.4,1.3c-0.2,0.5-0.6,0.9-1.1,1.3c-0.5,0.4-1.1,0.7-1.9,1s-1.6,0.4-2.5,0.4
				c-2,0-3.5-0.6-4.6-1.7c-1.1-1.2-1.7-2.7-1.7-4.6c0-1.3,0.3-2.5,0.8-3.5c0.5-1,1.2-1.8,2.2-2.3c1-0.6,2.1-0.8,3.5-0.8
				c0.8,0,1.6,0.1,2.3,0.4c0.7,0.2,1.3,0.6,1.8,0.9c0.5,0.4,0.8,0.8,1.1,1.2c0.3,0.4,0.4,0.8,0.4,1.2c0,0.4-0.1,0.7-0.4,1
				c-0.3,0.3-0.6,0.4-1,0.4c-0.3,0-0.5-0.1-0.7-0.2c-0.2-0.1-0.4-0.4-0.6-0.7c-0.4-0.6-0.8-1-1.2-1.3c-0.4-0.3-1-0.4-1.6-0.4
				c-0.9,0-1.7,0.4-2.3,1.1c-0.6,0.7-0.9,1.8-0.9,3c0,0.6,0.1,1.2,0.2,1.7c0.1,0.5,0.4,0.9,0.6,1.3c0.3,0.4,0.6,0.6,1,0.8
				c0.4,0.2,0.8,0.3,1.3,0.3c0.6,0,1.2-0.1,1.7-0.4c0.5-0.3,0.9-0.8,1.2-1.4c0.2-0.4,0.4-0.6,0.6-0.8c0.2-0.2,0.5-0.3,0.8-0.3
				c0.4,0,0.7,0.2,1,0.4C313.1,764.6,313.2,764.9,313.2,765.2z"/>
			<path class="st3" d="M315.1,756.4h0.4v-1.9c0-0.5,0-0.9,0-1.2c0-0.3,0.1-0.5,0.2-0.8c0.1-0.2,0.3-0.4,0.5-0.5
				c0.2-0.1,0.5-0.2,0.8-0.2c0.4,0,0.8,0.2,1.1,0.5c0.2,0.2,0.4,0.5,0.4,0.7c0.1,0.3,0.1,0.7,0.1,1.3v2.2h1.2c0.5,0,0.8,0.1,1,0.3
				c0.2,0.2,0.4,0.5,0.4,0.8c0,0.4-0.2,0.7-0.5,0.9c-0.3,0.2-0.8,0.3-1.5,0.3h-0.6v5.9c0,0.5,0,0.9,0.1,1.2c0,0.3,0.1,0.5,0.3,0.7
				c0.2,0.2,0.4,0.3,0.7,0.3c0.2,0,0.4,0,0.8-0.1c0.3-0.1,0.6-0.1,0.8-0.1c0.3,0,0.5,0.1,0.7,0.3c0.2,0.2,0.3,0.5,0.3,0.8
				c0,0.5-0.3,0.9-0.8,1.2c-0.6,0.3-1.4,0.4-2.4,0.4c-1,0-1.8-0.2-2.3-0.5c-0.5-0.3-0.9-0.8-1-1.4c-0.2-0.6-0.2-1.4-0.2-2.4v-6.2
				H315c-0.5,0-0.8-0.1-1.1-0.3c-0.2-0.2-0.4-0.5-0.4-0.8c0-0.3,0.1-0.6,0.4-0.8C314.2,756.5,314.6,756.4,315.1,756.4z"/>
			<path class="st3" d="M331.2,763.5h-6.3c0,0.7,0.2,1.4,0.4,1.9c0.3,0.6,0.7,1,1.1,1.3c0.5,0.3,1,0.4,1.6,0.4c0.4,0,0.7,0,1.1-0.1
				c0.3-0.1,0.6-0.2,0.9-0.4c0.3-0.2,0.6-0.4,0.8-0.6c0.3-0.2,0.6-0.5,1-0.9c0.2-0.1,0.4-0.2,0.7-0.2c0.3,0,0.6,0.1,0.8,0.3
				c0.2,0.2,0.3,0.4,0.3,0.8c0,0.3-0.1,0.6-0.3,1c-0.2,0.4-0.6,0.8-1,1.1c-0.5,0.4-1,0.7-1.7,0.9c-0.7,0.2-1.5,0.4-2.4,0.4
				c-2.1,0-3.7-0.6-4.8-1.8c-1.1-1.2-1.7-2.8-1.7-4.8c0-0.9,0.1-1.8,0.4-2.6c0.3-0.8,0.7-1.5,1.2-2.1c0.5-0.6,1.2-1,2-1.3
				c0.8-0.3,1.7-0.5,2.6-0.5c1.3,0,2.3,0.3,3.2,0.8c0.9,0.5,1.6,1.2,2,2.1c0.4,0.8,0.7,1.7,0.7,2.6c0,0.8-0.2,1.3-0.7,1.6
				C332.7,763.3,332.1,763.5,331.2,763.5z M324.9,761.6h5.8c-0.1-1.1-0.4-1.9-0.9-2.5c-0.5-0.5-1.2-0.8-2-0.8c-0.8,0-1.5,0.3-2,0.8
				C325.4,759.7,325.1,760.6,324.9,761.6z"/>
			<path class="st3" d="M344.2,767.4V767c-0.4,0.5-0.9,0.9-1.3,1.2c-0.4,0.3-0.9,0.5-1.4,0.7c-0.5,0.2-1,0.2-1.6,0.2
				c-0.8,0-1.5-0.2-2.1-0.5c-0.7-0.3-1.2-0.8-1.7-1.4c-0.5-0.6-0.8-1.3-1.1-2.1c-0.2-0.8-0.4-1.7-0.4-2.6c0-2,0.5-3.6,1.5-4.7
				c1-1.1,2.3-1.7,3.9-1.7c0.9,0,1.7,0.2,2.3,0.5c0.6,0.3,1.3,0.8,1.9,1.5v-4.7c0-0.7,0.1-1.2,0.4-1.5c0.3-0.3,0.6-0.5,1.1-0.5
				c0.5,0,0.9,0.2,1.1,0.5c0.3,0.3,0.4,0.8,0.4,1.4v14.1c0,0.6-0.1,1.1-0.4,1.4c-0.3,0.3-0.6,0.5-1.1,0.5c-0.4,0-0.8-0.2-1.1-0.5
				C344.4,768.4,344.2,767.9,344.2,767.4z M337.9,762.6c0,0.9,0.1,1.6,0.4,2.2c0.3,0.6,0.6,1.1,1.1,1.4c0.5,0.3,1,0.5,1.5,0.5
				c0.6,0,1.1-0.1,1.5-0.4c0.5-0.3,0.8-0.7,1.1-1.4c0.3-0.6,0.4-1.4,0.4-2.3c0-0.9-0.1-1.6-0.4-2.2c-0.3-0.6-0.7-1.1-1.1-1.4
				c-0.5-0.3-1-0.5-1.6-0.5c-0.6,0-1.1,0.2-1.6,0.5c-0.5,0.3-0.8,0.8-1.1,1.4C338,761.1,337.9,761.8,337.9,762.6z"/>
			<path class="st3" d="M357.2,753.2v4.9c0.6-0.6,1.2-1.1,1.8-1.4c0.6-0.3,1.4-0.5,2.3-0.5c1.1,0,2,0.3,2.8,0.8
				c0.8,0.5,1.4,1.2,1.9,2.2c0.4,1,0.7,2.1,0.7,3.4c0,1-0.1,1.9-0.4,2.7c-0.2,0.8-0.6,1.5-1.1,2.1s-1,1.1-1.7,1.4
				c-0.7,0.3-1.4,0.5-2.2,0.5c-0.5,0-1-0.1-1.4-0.2c-0.4-0.1-0.8-0.3-1.1-0.5c-0.3-0.2-0.6-0.4-0.8-0.6c-0.2-0.2-0.5-0.5-0.9-0.9
				v0.3c0,0.6-0.1,1.1-0.4,1.4c-0.3,0.3-0.7,0.5-1.1,0.5c-0.5,0-0.8-0.2-1.1-0.5s-0.4-0.8-0.4-1.4v-14c0-0.7,0.1-1.1,0.4-1.5
				c0.3-0.3,0.6-0.5,1.1-0.5c0.5,0,0.9,0.2,1.1,0.5C357.1,752.2,357.2,752.6,357.2,753.2z M357.3,762.7c0,1.3,0.3,2.3,0.9,2.9
				c0.6,0.7,1.3,1,2.3,1c0.8,0,1.5-0.3,2.1-1.1c0.6-0.7,0.9-1.7,0.9-3c0-0.8-0.1-1.6-0.4-2.2c-0.2-0.6-0.6-1.1-1-1.4
				c-0.4-0.3-1-0.5-1.6-0.5c-0.6,0-1.2,0.2-1.6,0.5c-0.5,0.3-0.9,0.8-1.1,1.4C357.5,761.1,357.3,761.9,357.3,762.7z"/>
			<path class="st3" d="M370.8,769.6l0.3-0.7l-3.9-9.9c-0.2-0.6-0.4-1-0.4-1.2c0-0.3,0.1-0.5,0.2-0.8c0.1-0.2,0.3-0.4,0.6-0.6
				c0.2-0.1,0.5-0.2,0.8-0.2c0.5,0,0.8,0.1,1,0.4c0.2,0.3,0.4,0.7,0.6,1.3l2.7,7.9l2.6-7.3c0.2-0.6,0.4-1.1,0.6-1.4
				c0.2-0.3,0.3-0.6,0.5-0.7c0.2-0.1,0.4-0.2,0.8-0.2c0.2,0,0.5,0.1,0.7,0.2c0.2,0.1,0.4,0.3,0.5,0.5c0.1,0.2,0.2,0.5,0.2,0.7
				c0,0.1-0.1,0.4-0.2,0.6c-0.1,0.3-0.2,0.6-0.3,0.8l-4.2,11c-0.4,1-0.7,1.7-1.1,2.3c-0.3,0.5-0.8,1-1.4,1.3
				c-0.6,0.3-1.3,0.4-2.3,0.4c-0.9,0-1.6-0.1-2.1-0.3c-0.5-0.2-0.7-0.6-0.7-1.1c0-0.4,0.1-0.7,0.3-0.9c0.2-0.2,0.6-0.3,1-0.3
				c0.2,0,0.3,0,0.5,0.1c0.2,0,0.4,0.1,0.5,0.1c0.4,0,0.7-0.1,0.9-0.2c0.2-0.1,0.4-0.3,0.6-0.6C370.4,770.5,370.6,770.1,370.8,769.6
				z"/>
		</g>
	</g>
</g>
<g id="OBJECTS">
	<g>
		<g>
			<polygon class="st4" points="303.3,86.1 269.4,95.7 263.6,83.9 			"/>
			<polygon class="st5" points="261.8,67.3 303.3,86.1 263.6,83.9 			"/>
			<polygon class="st4" points="236.7,80.8 263.6,83.9 261.8,67.3 			"/>
			<polygon class="st6" points="237.2,67.2 261.8,67.3 236.7,80.8 			"/>
			<polygon class="st5" points="261.8,67.3 261.8,55.7 237.2,67.2 			"/>
			<polygon class="st5" points="313.3,74 303.3,86.1 261.8,67.3 			"/>
			<polygon class="st7" points="313.3,74 292.7,56.3 261.8,67.3 261.8,67.3 			"/>
			<polygon class="st4" points="292.7,56.3 261.8,55.7 261.8,67.3 			"/>
			<polygon class="st6" points="263.6,83.9 269.4,95.7 236.7,80.8 			"/>
			<polygon class="st5" points="238.1,88.2 269.4,95.7 242.3,103.1 			"/>
			<polygon class="st6" points="222.9,97.2 242.3,103.1 238.1,88.2 			"/>
			<polygon class="st6" points="223.1,88.9 238.1,88.2 222.9,97.2 			"/>
			<polygon class="st5" points="238.1,88.2 236.7,80.8 223.1,88.9 			"/>
			<polygon class="st4" points="236.7,80.8 269.4,95.7 238.1,88.2 			"/>
			<polygon class="st4" points="279.9,98.7 303.3,86.1 311.2,96.5 			"/>
			<polygon class="st5" points="294.1,106.6 311.2,96.5 279.9,98.7 			"/>
			<polygon class="st8" points="274.6,105 279.9,98.7 294.1,106.6 			"/>
			<polygon class="st9" points="279.9,98.7 269.4,95.7 274.6,105 			"/>
			<polygon class="st5" points="269.4,95.7 303.3,86.1 279.9,98.7 			"/>
			<polygon class="st5" points="319.5,87.2 313.3,74 331.4,82.2 			"/>
			<polygon class="st9" points="327.3,93.7 331.4,82.2 319.5,87.2 			"/>
			<polygon class="st8" points="311.2,96.5 319.5,87.2 327.3,93.7 			"/>
			<polygon class="st6" points="319.5,87.2 303.3,86.1 311.2,96.5 			"/>
			<polygon class="st7" points="303.3,86.1 313.3,74 319.5,87.2 			"/>
			<polygon class="st8" points="274.6,105 242.3,103.1 269.4,95.7 			"/>
			<polygon class="st8" points="294.1,106.6 311.2,96.5 327.3,93.7 			"/>
		</g>
		<g>
			<polygon class="st4" points="396.9,57.4 375.3,63.5 371.6,56 			"/>
			<polygon class="st5" points="370.5,45.4 396.9,57.4 371.6,56 			"/>
			<polygon class="st4" points="354.5,54 371.6,56 370.5,45.4 			"/>
			<polygon class="st6" points="354.8,45.4 370.5,45.4 354.5,54 			"/>
			<polygon class="st5" points="370.5,45.4 370.5,38 354.8,45.4 			"/>
			<polygon class="st5" points="403.2,49.7 396.9,57.4 370.5,45.4 			"/>
			<polygon class="st7" points="403.2,49.7 390.1,38.4 370.5,45.4 370.5,45.4 			"/>
			<polygon class="st4" points="390.1,38.4 370.5,38 370.5,45.4 			"/>
			<polygon class="st6" points="371.6,56 375.3,63.5 354.5,54 			"/>
			<polygon class="st5" points="355.4,58.7 375.3,63.5 358.1,68.2 			"/>
			<polygon class="st6" points="345.7,64.4 358.1,68.2 355.4,58.7 			"/>
			<polygon class="st6" points="345.9,59.1 355.4,58.7 345.7,64.4 			"/>
			<polygon class="st5" points="355.4,58.7 354.5,54 345.9,59.1 			"/>
			<polygon class="st4" points="354.5,54 375.3,63.5 355.4,58.7 			"/>
			<polygon class="st4" points="382,65.4 396.9,57.4 401.9,64 			"/>
			<polygon class="st5" points="391,70.4 401.9,64 382,65.4 			"/>
			<polygon class="st8" points="378.6,69.4 382,65.4 391,70.4 			"/>
			<polygon class="st9" points="382,65.4 375.3,63.5 378.6,69.4 			"/>
			<polygon class="st5" points="375.3,63.5 396.9,57.4 382,65.4 			"/>
			<polygon class="st5" points="407.1,58.1 403.2,49.7 414.7,54.9 			"/>
			<polygon class="st9" points="412.1,62.2 414.7,54.9 407.1,58.1 			"/>
			<polygon class="st8" points="401.9,64 407.1,58.1 412.1,62.2 			"/>
			<polygon class="st6" points="407.1,58.1 396.9,57.4 401.9,64 			"/>
			<polygon class="st7" points="396.9,57.4 403.2,49.7 407.1,58.1 			"/>
			<polygon class="st8" points="378.6,69.4 358.1,68.2 375.3,63.5 			"/>
			<polygon class="st8" points="391,70.4 401.9,64 412.1,62.2 			"/>
		</g>
		<g>
			<polygon class="st4" points="523.2,122.5 489.2,132.2 483.4,120.3 			"/>
			<polygon class="st5" points="481.6,103.8 523.2,122.5 483.4,120.3 			"/>
			<polygon class="st4" points="456.5,117.2 483.4,120.3 481.6,103.8 			"/>
			<polygon class="st6" points="457,103.6 481.6,103.8 456.5,117.2 			"/>
			<polygon class="st5" points="481.6,103.8 481.6,92.1 457,103.6 			"/>
			<polygon class="st5" points="533.1,110.4 523.2,122.5 481.6,103.8 			"/>
			<polygon class="st7" points="533.1,110.4 512.6,92.7 481.6,103.8 481.6,103.8 			"/>
			<polygon class="st4" points="512.6,92.7 481.6,92.1 481.6,103.8 			"/>
			<polygon class="st6" points="483.4,120.3 489.2,132.2 456.5,117.2 			"/>
			<polygon class="st5" points="457.9,124.6 489.2,132.2 462.2,139.5 			"/>
			<polygon class="st6" points="442.7,133.6 462.2,139.5 457.9,124.6 			"/>
			<polygon class="st6" points="442.9,125.3 457.9,124.6 442.7,133.6 			"/>
			<polygon class="st5" points="457.9,124.6 456.5,117.2 442.9,125.3 			"/>
			<polygon class="st4" points="456.5,117.2 489.2,132.2 457.9,124.6 			"/>
			<polygon class="st4" points="499.7,135.1 523.2,122.5 531,132.9 			"/>
			<polygon class="st5" points="514,143 531,132.9 499.7,135.1 			"/>
			<polygon class="st8" points="494.5,141.4 499.7,135.1 514,143 			"/>
			<polygon class="st9" points="499.7,135.1 489.2,132.2 494.5,141.4 			"/>
			<polygon class="st5" points="489.2,132.2 523.2,122.5 499.7,135.1 			"/>
			<polygon class="st5" points="539.3,123.7 533.1,110.4 551.3,118.6 			"/>
			<polygon class="st9" points="547.1,130.1 551.3,118.6 539.3,123.7 			"/>
			<polygon class="st8" points="531,132.9 539.3,123.7 547.1,130.1 			"/>
			<polygon class="st6" points="539.3,123.7 523.2,122.5 531,132.9 			"/>
			<polygon class="st7" points="523.2,122.5 533.1,110.4 539.3,123.7 			"/>
			<polygon class="st8" points="494.5,141.4 462.2,139.5 489.2,132.2 			"/>
			<polygon class="st8" points="514,143 531,132.9 547.1,130.1 			"/>
		</g>
		<g>
			<g>
				<polygon class="st10" points="403.4,697.2 433,650.7 407.1,607.1 				"/>
				<polygon class="st11" points="407.1,607.1 433,650.7 507.3,689.5 				"/>
				<polygon class="st11" points="403.4,697.2 451.7,717.5 433,650.7 				"/>
				<polygon class="st12" points="433,650.7 507.3,689.5 451.7,717.5 				"/>
				<polygon class="st11" points="403.4,697.2 356.1,698.1 407.1,607.1 				"/>
				<polygon class="st13" points="292.7,596 312.9,712.3 284.5,672.4 				"/>
				<polygon class="st14" points="143.8,303.1 236.2,608.6 292.7,596 				"/>
				<polygon class="st15" points="286.5,655.1 292.7,595.3 236.5,608.4 				"/>
				<polygon class="st16" points="299.6,361.6 292.7,596 143.8,303.1 				"/>
				<polygon class="st16" points="343.5,563.9 372.5,371.2 299.6,361.6 				"/>
				<polygon class="st15" points="356.1,698.1 312.9,712.3 292.7,596 				"/>
				<polygon class="st15" points="356.1,698.1 407.1,607.1 343.5,563.9 				"/>
				<polygon class="st17" points="407.1,607.1 372.5,371.2 343.5,563.9 				"/>
				<polygon class="st18" points="372.5,371.2 467.8,473 407.1,607.1 				"/>
				<polygon class="st19" points="507.3,689.5 542,625 407.1,607.1 				"/>
				<polygon class="st20" points="407.1,607.1 542,625 467.8,473 				"/>
				<polygon class="st21" points="372.5,371.2 372.5,371.2 467.8,473 444.3,371.2 				"/>
				<polygon class="st22" points="605.4,477.4 467.8,473 542,625 605.4,477.4 				"/>
				<polygon class="st18" points="540.4,390.5 467.8,473 605.4,477.4 				"/>
				<polygon class="st17" points="655.3,361.6 540.4,390.5 605.4,477.4 625.9,417.3 				"/>
				<polygon class="st16" points="695.3,296.5 547.3,356.2 540.4,390.5 655.3,361.6 				"/>
				<polygon class="st23" points="467.8,473 547.3,356.2 540.4,390.5 				"/>
				<polygon class="st16" points="444.3,371.2 547.3,356.2 467.8,473 				"/>
				<polygon class="st17" points="292.7,596 343.5,563.9 299.6,361.6 				"/>
				<polygon class="st13" points="356.1,698.1 343.3,563.7 292.7,596 				"/>
				<polygon class="st10" points="286.8,655.3 285.2,672.4 260.5,630.7 				"/>
			</g>
			<polygon class="st24" points="143.8,303.1 231.9,282.1 299.6,361.6 			"/>
			<polygon class="st25" points="231.9,282.1 439,265 372.5,371.2 			"/>
			<polygon class="st24" points="439,265 444.3,371.2 547.3,356.2 			"/>
			<polygon class="st26" points="439,265 695.3,296.5 547.3,356.2 			"/>
			<polygon class="st27" points="231.9,282.1 372.5,371.2 299.6,361.6 			"/>
			<polygon class="st28" points="439,265 444.3,371.2 372.5,371.2 			"/>
		</g>
		<g>
			
				<linearGradient id="SVGID_2_" gradientUnits="userSpaceOnUse" x1="312.1743" y1="217.363" x2="280.2587" y2="286.1335" gradientTransform="matrix(0.9998 -2.030000e-02 2.030000e-02 0.9998 -7.1192 33.2814)">
				<stop  offset="1.212120e-02" style="stop-color:#C4DEE1"/>
				<stop  offset="0.1718" style="stop-color:#B9CED5"/>
				<stop  offset="0.4385" style="stop-color:#AABBC7"/>
				<stop  offset="0.7078" style="stop-color:#A2AFBE"/>
				<stop  offset="0.9818" style="stop-color:#9FABBB"/>
			</linearGradient>
			<polygon class="st29" points="292.9,306.9 298.1,228.1 329.8,239.8 			"/>
			<polygon class="st30" points="332.7,205.3 329.8,239.8 298.1,228.1 			"/>
			
				<linearGradient id="SVGID_3_" gradientUnits="userSpaceOnUse" x1="357.6452" y1="210.9081" x2="393.7299" y2="165.0865" gradientTransform="matrix(0.9998 -2.030000e-02 2.030000e-02 0.9998 -7.1192 33.2814)">
				<stop  offset="0" style="stop-color:#E4F0F2"/>
				<stop  offset="1" style="stop-color:#F4F8F4"/>
			</linearGradient>
			<polygon class="st31" points="372.2,195.2 329.8,239.8 369.6,247.2 			"/>
			<polygon class="st30" points="332.7,205.3 353.2,214.1 329.8,239.8 			"/>
			
				<linearGradient id="SVGID_4_" gradientUnits="userSpaceOnUse" x1="356.587" y1="202.6608" x2="350.3054" y2="115.6164" gradientTransform="matrix(0.9998 -2.030000e-02 2.030000e-02 0.9998 -7.1192 33.2814)">
				<stop  offset="0" style="stop-color:#E4F0F2"/>
				<stop  offset="1" style="stop-color:#C0D7B2"/>
			</linearGradient>
			<polygon class="st32" points="353.1,215.7 364.6,147.2 332.7,205.3 			"/>
			
				<linearGradient id="SVGID_5_" gradientUnits="userSpaceOnUse" x1="356.4106" y1="155.5503" x2="375.9221" y2="155.5503" gradientTransform="matrix(0.9998 -2.030000e-02 2.030000e-02 0.9998 -7.1192 33.2814)">
				<stop  offset="0" style="stop-color:#D2DFF0"/>
				<stop  offset="1" style="stop-color:#C7DFE2"/>
			</linearGradient>
			<polygon class="st33" points="372.2,195.2 364.6,147.2 353.1,215.7 			"/>
			
				<linearGradient id="SVGID_6_" gradientUnits="userSpaceOnUse" x1="328.334" y1="217.3635" x2="327.4954" y2="243.3625" gradientTransform="matrix(0.9998 -2.030000e-02 2.030000e-02 0.9998 -7.1192 33.2814)">
				<stop  offset="1.212120e-02" style="stop-color:#DCECF2"/>
				<stop  offset="0.1207" style="stop-color:#D8E8F0"/>
				<stop  offset="0.5473" style="stop-color:#CDDCEB"/>
				<stop  offset="0.9818" style="stop-color:#C9D8E9"/>
			</linearGradient>
			<polygon class="st34" points="292.9,306.9 357.1,273.7 329.8,239.8 			"/>
			
				<linearGradient id="SVGID_7_" gradientUnits="userSpaceOnUse" x1="397.6135" y1="188.6065" x2="389.7014" y2="225.7316" gradientTransform="matrix(0.9998 -2.030000e-02 2.030000e-02 0.9998 -7.1192 33.2814)">
				<stop  offset="1.212120e-02" style="stop-color:#E0EACD"/>
				<stop  offset="0.9818" style="stop-color:#C9D8E9"/>
			</linearGradient>
			<polygon class="st35" points="356.2,229 357.1,273.7 421.6,254.4 			"/>
			
				<linearGradient id="SVGID_8_" gradientUnits="userSpaceOnUse" x1="393.0381" y1="166.3937" x2="393.5629" y2="185.2891" gradientTransform="matrix(0.9998 -2.030000e-02 2.030000e-02 0.9998 -7.1192 33.2814)">
				<stop  offset="1.212120e-02" style="stop-color:#BBD2A3"/>
				<stop  offset="0.9818" style="stop-color:#9FABBB"/>
			</linearGradient>
			<polygon class="st36" points="409.8,204.7 372.2,195.2 370.8,222.5 			"/>
			
				<linearGradient id="SVGID_9_" gradientUnits="userSpaceOnUse" x1="294.4186" y1="274.059" x2="359.2572" y2="274.059" gradientTransform="matrix(0.9998 -2.030000e-02 2.030000e-02 0.9998 -7.1192 33.2814)">
				<stop  offset="1.212120e-02" style="stop-color:#E0EACD"/>
				<stop  offset="0.9818" style="stop-color:#C9D8E9"/>
			</linearGradient>
			<polygon class="st37" points="292.9,306.9 342.6,326.6 357.1,273.7 			"/>
			
				<linearGradient id="SVGID_10_" gradientUnits="userSpaceOnUse" x1="343.7382" y1="274.0585" x2="407.0038" y2="274.0585" gradientTransform="matrix(0.9998 -2.030000e-02 2.030000e-02 0.9998 -7.1192 33.2819)">
				<stop  offset="0" style="stop-color:#A4BBB4"/>
				<stop  offset="0.9818" style="stop-color:#98AAA7"/>
			</linearGradient>
			<polygon class="st38" points="405.2,292.8 357.1,273.7 342.6,326.6 			"/>
			
				<linearGradient id="SVGID_11_" gradientUnits="userSpaceOnUse" x1="359.2572" y1="248.8361" x2="424.1184" y2="248.8361" gradientTransform="matrix(0.9998 -2.030000e-02 2.030000e-02 0.9998 -7.1192 33.2819)">
				<stop  offset="1.212120e-02" style="stop-color:#F9F9F1"/>
				<stop  offset="0.9818" style="stop-color:#A6B3D2"/>
			</linearGradient>
			<polygon class="st39" points="421.6,254.4 405.2,292.8 357.1,273.7 			"/>
			<polygon class="st40" points="458.1,190.3 372.2,195.2 409.8,204.7 			"/>
			
				<linearGradient id="SVGID_12_" gradientUnits="userSpaceOnUse" x1="359.2581" y1="200.9647" x2="431.7756" y2="200.9647" gradientTransform="matrix(0.9998 -2.030000e-02 2.030000e-02 0.9998 -7.1192 33.2819)">
				<stop  offset="0" style="stop-color:#DBE9DD"/>
				<stop  offset="0.9818" style="stop-color:#F9F9DF"/>
			</linearGradient>
			<polygon class="st41" points="428.1,196.6 356.2,229 421.6,254.4 			"/>
			
				<linearGradient id="SVGID_13_" gradientUnits="userSpaceOnUse" x1="458.2368" y1="193.8641" x2="457.7222" y2="247.9034" gradientTransform="matrix(0.9998 -2.030000e-02 2.030000e-02 0.9998 -7.1192 33.2814)">
				<stop  offset="0" style="stop-color:#D2DFF0"/>
				<stop  offset="1" style="stop-color:#C7DFE2"/>
			</linearGradient>
			<polygon class="st42" points="428.1,196.6 489.1,251.5 421.6,254.4 			"/>
			
				<linearGradient id="SVGID_14_" gradientUnits="userSpaceOnUse" x1="343.7382" y1="285.1958" x2="452.4359" y2="285.1958" gradientTransform="matrix(0.9998 -2.030000e-02 2.030000e-02 0.9998 -7.1192 33.2814)">
				<stop  offset="1.212120e-02" style="stop-color:#DCECF2"/>
				<stop  offset="0.1207" style="stop-color:#D8E8F0"/>
				<stop  offset="0.5473" style="stop-color:#CDDCEB"/>
				<stop  offset="0.9818" style="stop-color:#C9D8E9"/>
			</linearGradient>
			<polygon class="st43" points="342.6,326.6 451.4,326.5 405.2,292.8 			"/>
			
				<linearGradient id="SVGID_15_" gradientUnits="userSpaceOnUse" x1="407.0038" y1="266.1503" x2="452.4359" y2="266.1503" gradientTransform="matrix(0.9998 -2.030000e-02 2.030000e-02 0.9998 -7.1192 33.2814)">
				<stop  offset="0" style="stop-color:#BFD8C3"/>
				<stop  offset="1" style="stop-color:#F0F5EC"/>
			</linearGradient>
			<polygon class="st44" points="421.6,254.4 451.4,326.5 405.2,292.8 			"/>
			
				<linearGradient id="SVGID_16_" gradientUnits="userSpaceOnUse" x1="455.7312" y1="184.9671" x2="480.6382" y2="232.3392" gradientTransform="matrix(0.9998 -2.030000e-02 2.030000e-02 0.9998 -7.1192 33.2814)">
				<stop  offset="1.212120e-02" style="stop-color:#F9F9F1"/>
				<stop  offset="0.9818" style="stop-color:#A6B3D2"/>
			</linearGradient>
			<polygon class="st45" points="458.1,190.3 489.1,251.5 430.4,198.6 			"/>
			
				<linearGradient id="SVGID_17_" gradientUnits="userSpaceOnUse" x1="424.1184" y1="266.1498" x2="519.4911" y2="266.1498" gradientTransform="matrix(0.9998 -2.030000e-02 2.030000e-02 0.9998 -7.1192 33.2819)">
				<stop  offset="0" style="stop-color:#E4F0F2"/>
				<stop  offset="0.4872" style="stop-color:#D4E5D5"/>
				<stop  offset="1" style="stop-color:#C0D7B2"/>
			</linearGradient>
			<polygon class="st46" points="518,304.5 451.4,326.5 421.6,254.4 			"/>
			
				<linearGradient id="SVGID_18_" gradientUnits="userSpaceOnUse" x1="424.1183" y1="255.0421" x2="519.4911" y2="255.0421" gradientTransform="matrix(0.9998 -2.030000e-02 2.030000e-02 0.9998 -7.1192 33.2814)">
				<stop  offset="1.212120e-02" style="stop-color:#C4DEE1"/>
				<stop  offset="0.1718" style="stop-color:#B9CED5"/>
				<stop  offset="0.4385" style="stop-color:#AABBC7"/>
				<stop  offset="0.7078" style="stop-color:#A2AFBE"/>
				<stop  offset="0.9818" style="stop-color:#9FABBB"/>
			</linearGradient>
			<polygon class="st47" points="489.1,251.5 518,304.5 421.6,254.4 			"/>
			
				<linearGradient id="SVGID_19_" gradientUnits="userSpaceOnUse" x1="489.5028" y1="194.4082" x2="496.6058" y2="221.8053" gradientTransform="matrix(0.9998 -2.030000e-02 2.030000e-02 0.9998 -7.1192 33.2814)">
				<stop  offset="0" style="stop-color:#EBF3EF"/>
				<stop  offset="1" style="stop-color:#F5F9F6"/>
			</linearGradient>
			<polygon class="st48" points="489.1,251.5 504.3,223.3 467,207.8 			"/>
			
				<linearGradient id="SVGID_20_" gradientUnits="userSpaceOnUse" x1="491.6857" y1="255.0421" x2="543.6661" y2="255.0421" gradientTransform="matrix(0.9998 -2.030000e-02 2.030000e-02 0.9998 -7.1192 33.2814)">
				<stop  offset="0" style="stop-color:#A4BBB4"/>
				<stop  offset="0.9818" style="stop-color:#98AAA7"/>
			</linearGradient>
			<polygon class="st49" points="541.9,288.8 518,304.5 489.1,251.5 			"/>
			
				<linearGradient id="SVGID_21_" gradientUnits="userSpaceOnUse" x1="513.7905" y1="231.6478" x2="507.167" y2="204.7384" gradientTransform="matrix(0.9998 -2.030000e-02 2.030000e-02 0.9998 -7.1192 33.2814)">
				<stop  offset="0" style="stop-color:#E4F0F2"/>
				<stop  offset="0.4872" style="stop-color:#D4E5D5"/>
				<stop  offset="1" style="stop-color:#C0D7B2"/>
			</linearGradient>
			<polygon class="st50" points="504.3,223.3 489.1,251.5 541.9,288.8 			"/>
			
				<linearGradient id="SVGID_22_" gradientUnits="userSpaceOnUse" x1="317.6494" y1="202.1413" x2="321.7583" y2="174.0632" gradientTransform="matrix(0.9998 -2.030000e-02 2.030000e-02 0.9998 -7.1192 33.2814)">
				<stop  offset="0" style="stop-color:#BFD8C3"/>
				<stop  offset="1" style="stop-color:#F0F5EC"/>
			</linearGradient>
			<polygon class="st51" points="298.1,228.1 332.7,205.3 329.8,239.8 			"/>
			
				<linearGradient id="SVGID_23_" gradientUnits="userSpaceOnUse" x1="345.6264" y1="206.2857" x2="340.1182" y2="180.8093" gradientTransform="matrix(0.9998 -2.030000e-02 2.030000e-02 0.9998 -7.1192 33.2814)">
				<stop  offset="0" style="stop-color:#BFD8C3"/>
				<stop  offset="1" style="stop-color:#F0F5EC"/>
			</linearGradient>
			<polygon class="st52" points="332.7,205.3 329.8,239.8 353.1,215.4 			"/>
			<linearGradient id="SVGID_24_" gradientUnits="userSpaceOnUse" x1="329.8291" y1="256.7763" x2="357.0967" y2="256.7763">
				<stop  offset="0" style="stop-color:#A4BBB4"/>
				<stop  offset="0.9818" style="stop-color:#98AAA7"/>
			</linearGradient>
			<polygon class="st53" points="329.8,239.8 357.1,273.7 356.5,244.7 			"/>
			
				<linearGradient id="SVGID_25_" gradientUnits="userSpaceOnUse" x1="398.2557" y1="140.6609" x2="395.5546" y2="171.2699" gradientTransform="matrix(0.9998 -2.030000e-02 2.030000e-02 0.9998 -7.1192 33.2814)">
				<stop  offset="1.212120e-02" style="stop-color:#ECF3EB"/>
				<stop  offset="2.012646e-02" style="stop-color:#EBF3EB"/>
				<stop  offset="0.3368" style="stop-color:#D8E8E1"/>
				<stop  offset="0.6566" style="stop-color:#CCE1DC"/>
				<stop  offset="0.9818" style="stop-color:#C8DFDA"/>
			</linearGradient>
			<polygon class="st54" points="422.7,192.3 372.2,195.2 364.6,147.2 			"/>
			
				<linearGradient id="SVGID_26_" gradientUnits="userSpaceOnUse" x1="357.6164" y1="184.9297" x2="357.6164" y2="119.8523" gradientTransform="matrix(0.9998 -2.030000e-02 2.030000e-02 0.9998 -7.1192 33.2814)">
				<stop  offset="0" style="stop-color:#E4F0F2"/>
				<stop  offset="1" style="stop-color:#F4F8F4"/>
			</linearGradient>
			<polygon class="st55" points="342.5,210 353.1,215.4 364.6,147.2 			"/>
		</g>
		<g class="st56">
			
				<linearGradient id="SVGID_27_" gradientUnits="userSpaceOnUse" x1="1462.3771" y1="2481.5737" x2="1536.6301" y2="2481.5737" gradientTransform="matrix(-0.9998 2.030000e-02 -2.030000e-02 -0.9998 2057.5923 2899.6082)">
				<stop  offset="1.212120e-02" style="stop-color:#C0CBAE"/>
				<stop  offset="0.9818" style="stop-color:#A8B4C5"/>
			</linearGradient>
			<polygon class="st57" points="541.9,286.6 518,302.3 474.2,611.3 			"/>
			
				<linearGradient id="SVGID_28_" gradientUnits="userSpaceOnUse" x1="1486.5521" y1="2473.9624" x2="1536.6301" y2="2473.9624" gradientTransform="matrix(-0.9998 2.030000e-02 -2.030000e-02 -0.9998 2057.5923 2899.6062)">
				<stop  offset="0" style="stop-color:#859790"/>
				<stop  offset="0.9818" style="stop-color:#7A8784"/>
			</linearGradient>
			<polygon class="st58" points="471.2,405.4 474.2,611.3 518,302.3 			"/>
			
				<linearGradient id="SVGID_29_" gradientUnits="userSpaceOnUse" x1="1535.3763" y1="2422.9214" x2="1606.1034" y2="2422.9214" gradientTransform="matrix(-0.9998 2.030000e-02 -2.030000e-02 -0.9998 2057.5923 2899.6062)">
				<stop  offset="1.212120e-02" style="stop-color:#D8D7D0"/>
				<stop  offset="0.9818" style="stop-color:#8791AC"/>
			</linearGradient>
			<polygon class="st59" points="402,480.3 471.2,405.4 474.2,611.3 			"/>
			
				<linearGradient id="SVGID_30_" gradientUnits="userSpaceOnUse" x1="1486.5521" y1="2576.9504" x2="1553.6073" y2="2576.9504" gradientTransform="matrix(-0.9998 2.030000e-02 -2.030000e-02 -0.9998 2057.5923 2899.6082)">
				<stop  offset="1.212120e-02" style="stop-color:#BCCDD4"/>
				<stop  offset="0.2104" style="stop-color:#B5C4CE"/>
				<stop  offset="0.5926" style="stop-color:#ABB8C7"/>
				<stop  offset="0.9818" style="stop-color:#A8B4C5"/>
			</linearGradient>
			<polygon class="st60" points="518,302.3 451.4,324.3 471.2,405.4 			"/>
			
				<linearGradient id="SVGID_31_" gradientUnits="userSpaceOnUse" x1="1535.3763" y1="2529.8394" x2="1606.1033" y2="2529.8394" gradientTransform="matrix(-0.9998 2.030000e-02 -2.030000e-02 -0.9998 2057.5923 2899.6082)">
				<stop  offset="0" style="stop-color:#A1B8A3"/>
				<stop  offset="1" style="stop-color:#D0D7CE"/>
			</linearGradient>
			<polygon class="st61" points="402,480.3 451.4,324.3 471.2,405.4 			"/>
			
				<linearGradient id="SVGID_32_" gradientUnits="userSpaceOnUse" x1="1553.6073" y1="2530.9382" x2="1662.3051" y2="2530.9382" gradientTransform="matrix(-0.9998 2.030000e-02 -2.030000e-02 -0.9998 2057.5923 2899.6062)">
				<stop  offset="0" style="stop-color:#C3D1D4"/>
				<stop  offset="0.4941" style="stop-color:#B4C5B7"/>
				<stop  offset="1" style="stop-color:#A2B795"/>
			</linearGradient>
			<polygon class="st62" points="342.6,324.4 451.4,324.3 402,480.3 			"/>
			
				<linearGradient id="SVGID_33_" gradientUnits="userSpaceOnUse" x1="1606.1033" y1="2511.9438" x2="1667.4865" y2="2511.9438" gradientTransform="matrix(-0.9998 2.030000e-02 -2.030000e-02 -0.9998 2057.5923 2899.6082)">
				<stop  offset="1.212120e-02" style="stop-color:#A4BDBF"/>
				<stop  offset="0.187" style="stop-color:#98ABB1"/>
				<stop  offset="0.4486" style="stop-color:#8B98A1"/>
				<stop  offset="0.7129" style="stop-color:#848C98"/>
				<stop  offset="0.9818" style="stop-color:#818895"/>
			</linearGradient>
			<polygon class="st63" points="341.4,519.6 342.6,324.4 402,480.3 			"/>
			
				<linearGradient id="SVGID_34_" gradientUnits="userSpaceOnUse" x1="1662.3051" y1="2522.2578" x2="1711.6246" y2="2522.2578" gradientTransform="matrix(-0.9998 2.030000e-02 -2.030000e-02 -0.9998 2057.5923 2899.6082)">
				<stop  offset="0" style="stop-color:#859790"/>
				<stop  offset="0.9818" style="stop-color:#7A8784"/>
			</linearGradient>
			<polygon class="st64" points="292.9,304.7 342.6,324.4 341.4,519.6 			"/>
		</g>
		<g>
			<polygon class="st4" points="305.7,645.6 262.6,657.8 255.3,642.8 			"/>
			<polygon class="st5" points="253,621.8 305.7,645.6 255.3,642.8 			"/>
			<polygon class="st4" points="221.1,638.9 255.3,642.8 253,621.8 			"/>
			<polygon class="st6" points="221.7,621.6 253,621.8 221.1,638.9 			"/>
			<polygon class="st5" points="253,621.8 253,607 221.7,621.6 			"/>
			<polygon class="st5" points="318.3,630.3 305.7,645.6 253,621.8 			"/>
			<polygon class="st7" points="318.3,630.3 292.2,607.8 253,621.8 253,621.8 			"/>
			<polygon class="st4" points="292.2,607.8 253,607 253,621.8 			"/>
			<polygon class="st6" points="255.3,642.8 262.6,657.8 221.1,638.9 			"/>
			<polygon class="st5" points="222.9,648.3 262.6,657.8 228.3,667.2 			"/>
			<polygon class="st6" points="203.5,659.7 228.3,667.2 222.9,648.3 			"/>
			<polygon class="st6" points="203.9,649.1 222.9,648.3 203.5,659.7 			"/>
			<polygon class="st5" points="222.9,648.3 221.1,638.9 203.9,649.1 			"/>
			<polygon class="st4" points="221.1,638.9 262.6,657.8 222.9,648.3 			"/>
			<polygon class="st4" points="275.9,661.6 305.7,645.6 315.7,658.7 			"/>
			<polygon class="st5" points="294,671.6 315.7,658.7 275.9,661.6 			"/>
			<polygon class="st6" points="269.3,669.6 275.9,661.6 294,671.6 			"/>
			<polygon class="st6" points="275.9,661.6 262.6,657.8 269.3,669.6 			"/>
			<polygon class="st5" points="262.6,657.8 305.7,645.6 275.9,661.6 			"/>
			<polygon class="st5" points="326.1,647 318.3,630.3 341.3,640.7 			"/>
			<polygon class="st9" points="336.1,655.2 341.3,640.7 326.1,647 			"/>
			<polygon class="st8" points="315.7,658.7 326.1,647 336.1,655.2 			"/>
			<polygon class="st6" points="326.1,647 305.7,645.6 315.7,658.7 			"/>
			<polygon class="st7" points="305.7,645.6 318.3,630.3 326.1,647 			"/>
			<polygon class="st6" points="269.3,669.6 228.3,667.2 262.6,657.8 			"/>
			<polygon class="st8" points="294,671.6 315.7,658.7 336.1,655.2 			"/>
		</g>
		<polygon class="st65" points="236.5,608.4 271.1,562.8 291.6,566.7 343.3,563.7 292.7,596 		"/>
		<g>
			<polygon class="st4" points="255.5,189.9 261.9,178.1 264.2,185 			"/>
			<polygon class="st6" points="276.6,186.4 261.9,178.1 264.2,185 			"/>
			<polygon class="st7" points="303.5,171.1 285,168.8 287.2,175.7 			"/>
			<polygon class="st6" points="280.5,184.8 285,168.8 287.2,175.7 			"/>
			<polygon class="st6" points="276.6,186.4 278.9,191.7 280.3,185.2 			"/>
			<polygon class="st4" points="276.9,179 276.6,186.4 280.3,185.2 			"/>
			<polygon class="st6" points="278.5,175.8 273.6,176.9 276.4,182.9 			"/>
			<polygon class="st9" points="278.8,182.2 280.5,184.8 282,178.9 			"/>
			<polygon class="st8" points="270.9,183.2 276.5,184.1 276.6,186.4 			"/>
		</g>
		<g>
			<polygon class="st66" points="557.1,395.1 548.2,398.4 558.7,401.3 			"/>
			<polygon class="st67" points="569.1,396.2 557.1,395.1 558.7,401.3 			"/>
			<polygon class="st66" points="569.6,398.2 568.8,393 562.8,395.1 			"/>
			<polygon class="st68" points="563.7,399 559.3,401.6 565.2,401.4 			"/>
			<polygon class="st69" points="561.2,391 560.9,395.1 557.1,395.1 			"/>
		</g>
		<g>
			<polygon class="st66" points="611.3,351.7 607.1,351.7 611,354.5 			"/>
			<polygon class="st67" points="616.2,354.1 611.3,351.7 611,354.5 			"/>
			<polygon class="st66" points="616.1,355 616.6,352.7 613.7,352.6 			"/>
			<polygon class="st68" points="613.5,354.4 611.2,354.7 613.7,355.6 			"/>
			<polygon class="st69" points="613.7,350.6 612.9,352.3 611.3,351.7 			"/>
		</g>
		<g>
			<polygon class="st66" points="590.9,346.6 585.6,348.5 591.8,350.2 			"/>
			<polygon class="st67" points="598.1,347.2 590.9,346.6 591.8,350.2 			"/>
			<polygon class="st66" points="598.3,348.4 597.9,345.3 594.3,346.5 			"/>
			<polygon class="st68" points="594.8,348.9 592.2,350.4 595.7,350.3 			"/>
			<polygon class="st69" points="593.3,344.1 593.1,346.5 590.9,346.6 			"/>
		</g>
		<g class="st70">
			<polygon class="st66" points="599.9,324.1 603.3,323 599.4,321.8 			"/>
			<polygon class="st67" points="595.4,323.5 599.9,324.1 599.4,321.8 			"/>
			<polygon class="st66" points="595.2,322.8 595.5,324.7 597.8,324 			"/>
			<polygon class="st68" points="597.5,322.5 599.2,321.6 596.9,321.6 			"/>
			<polygon class="st69" points="598.3,325.6 598.5,324.1 599.9,324.1 			"/>
		</g>
		<g class="st71">
			<polygon class="st66" points="577.1,325.8 572.9,327.4 577.8,328.7 			"/>
			<polygon class="st67" points="582.7,326.3 577.1,325.8 577.8,328.7 			"/>
			<polygon class="st66" points="582.9,327.3 582.5,324.8 579.7,325.8 			"/>
			<polygon class="st68" points="580.2,327.6 578.1,328.8 580.9,328.8 			"/>
			<polygon class="st69" points="579,323.9 578.9,325.8 577.1,325.8 			"/>
		</g>
		<g>
			<polygon class="st66" points="581.3,355.8 577.2,357.7 582.2,358.6 			"/>
			<polygon class="st67" points="586.9,355.9 581.3,355.8 582.2,358.6 			"/>
			<polygon class="st66" points="587.2,356.8 586.6,354.4 583.9,355.6 			"/>
			<polygon class="st68" points="584.5,357.4 582.5,358.7 585.3,358.5 			"/>
			<polygon class="st69" points="583,353.8 583,355.7 581.3,355.8 			"/>
		</g>
		<g>
			<polygon class="st66" points="493.2,381.8 497.6,382.5 493,384.7 			"/>
			<polygon class="st67" points="487.8,383.3 493.2,381.8 493,384.7 			"/>
			<polygon class="st66" points="487.8,384.3 487.7,381.8 490.6,382.3 			"/>
			<polygon class="st68" points="490.5,384.2 492.8,384.9 490.1,385.4 			"/>
			<polygon class="st69" points="491,380.3 491.5,382.1 493.2,381.8 			"/>
		</g>
		<g class="st72">
			<polygon class="st66" points="531.4,331.8 534.7,332.3 531.2,334 			"/>
			<polygon class="st67" points="527.3,333 531.4,331.8 531.2,334 			"/>
			<polygon class="st66" points="527.2,333.7 527.2,331.9 529.4,332.2 			"/>
			<polygon class="st68" points="529.3,333.6 531,334.2 529,334.5 			"/>
			<polygon class="st69" points="529.7,330.7 530,332 531.4,331.8 			"/>
		</g>
		<g>
			<polygon class="st66" points="540.7,370.1 536.4,370.8 540.9,373.1 			"/>
			<polygon class="st67" points="546.1,371.8 540.7,370.1 540.9,373.1 			"/>
			<polygon class="st66" points="546.2,372.7 546.3,370.3 543.3,370.6 			"/>
			<polygon class="st68" points="543.4,372.5 541.1,373.3 543.8,373.8 			"/>
			<polygon class="st69" points="543,368.6 542.5,370.5 540.7,370.1 			"/>
		</g>
		<g>
			<polygon class="st66" points="601.6,361.7 599.3,364.2 603.1,363.3 			"/>
			<polygon class="st67" points="605.5,360 601.6,361.7 603.1,363.3 			"/>
			<polygon class="st66" points="606,360.6 604.9,359.1 603.3,360.7 			"/>
			<polygon class="st68" points="604.3,361.8 603.3,363.3 605.1,362.3 			"/>
			<polygon class="st69" points="602.2,359.7 602.8,361 601.6,361.7 			"/>
		</g>
		<g>
			<polygon class="st4" points="399.2,128.6 406.3,126 404.7,129.7 			"/>
			<polygon class="st6" points="409.5,135 406.3,126 404.7,129.7 			"/>
			<polygon class="st7" points="426.5,138.6 419.5,130.7 417.9,134.4 			"/>
			<polygon class="st6" points="411.6,135.8 419.5,130.7 417.9,134.4 			"/>
			<polygon class="st6" points="409.5,135 408.4,138.1 411.4,135.9 			"/>
			<polygon class="st4" points="412.3,132 409.5,135 411.4,135.9 			"/>
			<polygon class="st6" points="414.2,131.2 411.7,129.9 410.7,133.4 			"/>
			<polygon class="st9" points="411.9,134 411.6,135.8 414.5,133.8 			"/>
			<polygon class="st8" points="408.3,131.5 410.3,133.9 409.5,135 			"/>
		</g>
		<g>
			<polygon class="st4" points="565.6,256.5 579.3,251.5 576.2,258.8 			"/>
			<polygon class="st6" points="585.4,268.9 579.3,251.5 576.2,258.8 			"/>
			<polygon class="st7" points="618.3,275.9 604.9,260.6 601.7,267.9 			"/>
			<polygon class="st6" points="589.6,270.5 604.9,260.6 601.7,267.9 			"/>
			<polygon class="st6" points="585.4,268.9 583.4,274.9 589.2,270.7 			"/>
			<polygon class="st4" points="590.9,263.1 585.4,268.9 589.2,270.7 			"/>
			<polygon class="st6" points="594.6,261.6 589.8,259.1 587.7,265.9 			"/>
			<polygon class="st9" points="590.1,267.1 589.6,270.5 595.2,266.7 			"/>
			<polygon class="st8" points="583.1,262.2 586.9,266.9 585.4,268.9 			"/>
		</g>
		<g>
			<polygon class="st4" points="581.2,214.8 585.2,208.4 586.3,212.4 			"/>
			<polygon class="st6" points="593.2,213.6 585.2,208.4 586.3,212.4 			"/>
			<polygon class="st7" points="608.8,205.9 598.5,204 599.5,207.9 			"/>
			<polygon class="st6" points="595.4,212.8 598.5,204 599.5,207.9 			"/>
			<polygon class="st6" points="593.2,213.6 594.3,216.6 595.3,213 			"/>
			<polygon class="st4" points="593.6,209.4 593.2,213.6 595.3,213 			"/>
			<polygon class="st6" points="594.6,207.7 591.9,208.2 593.2,211.6 			"/>
			<polygon class="st9" points="594.6,211.3 595.4,212.8 596.5,209.5 			"/>
			<polygon class="st8" points="590.1,211.6 593.2,212.3 593.2,213.6 			"/>
		</g>
		<g>
			<polygon class="st6" points="576.9,319.6 583.1,317.6 587.8,320.3 			"/>
			<polygon class="st73" points="588.3,320.4 580.7,322.3 577.4,319.7 			"/>
			<polygon class="st73" points="579.3,321.3 579.2,322.6 580.7,322.2 			"/>
			<polygon class="st74" points="576.7,317.6 577.3,319.3 581.3,318.2 			"/>
			<polygon class="st75" points="585.5,318.9 587.4,315 587.8,320.3 			"/>
			<polygon class="st75" points="587.4,315 590.2,316.9 587.5,317.2 			"/>
		</g>
		<g>
			<polygon class="st6" points="339.6,238.2 332.9,236.1 327.9,239 			"/>
			<polygon class="st73" points="327.4,239.1 335.5,241.1 339.1,238.3 			"/>
			<polygon class="st73" points="337,240.1 337.1,241.5 335.5,241 			"/>
			<polygon class="st74" points="339.8,236.1 339.2,237.9 334.8,236.7 			"/>
			<polygon class="st75" points="330.4,237.5 328.4,233.3 327.9,239 			"/>
			<polygon class="st75" points="328.4,233.3 325.4,235.4 328.2,235.7 			"/>
		</g>
		<g>
			<polygon class="st76" points="386.5,345.2 342.5,347.3 377.2,346.8 			"/>
			<polygon class="st76" points="508,360 464,362.2 498.7,361.7 			"/>
			<polygon class="st76" points="512.9,341.5 468.9,343.7 503.7,343.1 			"/>
			<polygon class="st76" points="510,317.8 494.9,318.3 506.8,318.8 			"/>
			<polygon class="st76" points="426.9,335.8 351,337.6 398.8,338.9 			"/>
			<polygon class="st76" points="404.1,329.7 343.6,331.6 379.5,331.8 			"/>
			<polygon class="st76" points="494.3,348.9 368.2,352.7 438.7,354 			"/>
		</g>
		<g class="st77">
			<polygon class="st76" points="252.5,314.8 208.5,316.9 243.3,316.4 			"/>
			<polygon class="st76" points="292.9,305.4 217,307.3 264.9,308.5 			"/>
			<polygon class="st78" points="270.2,299.3 209.6,301.2 245.6,301.5 			"/>
		</g>
		<g class="st77">
			<polygon class="st76" points="574.5,325.6 545.1,327 568.3,326.7 			"/>
			<polygon class="st76" points="601.5,319.3 550.8,320.6 582.7,321.4 			"/>
			<polygon class="st76" points="586.3,315.3 545.8,316.5 569.8,316.7 			"/>
		</g>
		<g class="st77">
			<polygon class="st76" points="565.1,306.8 521.1,308.9 555.9,308.4 			"/>
			<polygon class="st76" points="605.5,297.3 529.6,299.2 577.5,300.5 			"/>
			<polygon class="st76" points="582.8,291.3 522.2,293.1 558.2,293.4 			"/>
		</g>
		<g class="st79">
			<polygon class="st76" points="309.3,335.1 273.9,336.8 301.8,336.4 			"/>
			<polygon class="st76" points="341.7,327.5 280.7,329 319.2,330 			"/>
			<polygon class="st76" points="323.4,322.6 274.7,324.1 303.7,324.3 			"/>
		</g>
		<g>
			<polygon class="st80" points="474.8,193.6 470.5,211.9 478.5,223 			"/>
			<path class="st81" d="M474.7,193.6l6.2,3.4l1.4,5.2c0,0-3.8,21.8-3.8,20.7C478.4,221.3,474.7,193.6,474.7,193.6z"/>
			<polygon class="st80" points="475.2,193.8 479.6,190.1 480.8,196.8 			"/>
			<polygon class="st82" points="483.9,194.7 480.6,194.3 480,191.9 			"/>
			<polygon class="st83" points="470.6,211.8 472.8,219.9 478.4,222.9 			"/>
			<polygon class="st83" points="473.1,201.7 469.7,206.5 469.6,211.9 			"/>
			<polygon class="st83" points="482.3,203.6 483.2,207.2 482,210.4 			"/>
		</g>
		<g>
			<polygon class="st80" points="487,205.5 484.7,215.3 489,221.1 			"/>
			<path class="st81" d="M487,205.5l3.3,1.8l0.7,2.7c0,0-2,11.6-2,11C488.9,220.2,487,205.5,487,205.5z"/>
			<polygon class="st80" points="487.2,205.7 489.6,203.7 490.2,207.2 			"/>
			<polygon class="st82" points="491.9,206.1 490.1,205.9 489.8,204.6 			"/>
			<polygon class="st83" points="484.8,215.2 486,219.5 488.9,221.1 			"/>
			<polygon class="st83" points="486.1,209.8 484.3,212.4 484.3,215.2 			"/>
			<polygon class="st83" points="491,210.9 491.5,212.8 490.9,214.5 			"/>
		</g>
		<g>
			<polygon class="st80" points="496.6,280.9 493,296.1 499.7,305.3 			"/>
			<path class="st81" d="M496.5,280.9l5.1,2.8l1.1,4.3c0,0-3.2,18.1-3.2,17.3C499.6,303.9,496.5,280.9,496.5,280.9z"/>
			<polygon class="st80" points="496.9,281.1 500.6,278 501.7,283.5 			"/>
			<polygon class="st82" points="504.2,281.8 501.5,281.5 500.9,279.4 			"/>
			<polygon class="st83" points="493.1,296 495,302.8 499.6,305.2 			"/>
			<polygon class="st83" points="495.2,287.6 492.4,291.6 492.3,296.1 			"/>
			<polygon class="st83" points="502.9,289.2 503.6,292.2 502.7,294.9 			"/>
		</g>
	</g>
</g>
</svg>
